<svg width="30" height="34" viewBox="0 0 30 34" fill="none" xmlns="http://www.w3.org/2000/svg">
<path d="M22.1698 0.751955C22.0657 0.73672 21.9476 0.746242 21.8195 0.786867C20.1112 1.11187 18.234 2.08687 17.0382 3.22437C16.0132 4.19937 15.1597 5.82437 15.1597 7.28687C15.1597 7.61187 15.4987 7.9375 15.8403 7.9375C17.7195 7.775 19.5993 6.79937 20.7952 5.66187C21.8202 4.36187 22.6737 2.9 22.6737 1.4375C22.6737 1.07188 22.4822 0.797658 22.1698 0.751955ZM22.6737 7.77564C19.5987 7.77564 18.234 9.5625 16.184 9.5625C13.9632 9.5625 11.9132 7.9375 9.35068 7.9375C5.76318 7.9375 0.295175 11.1869 0.295175 18.6619C0.124342 25.4869 6.61668 33.125 10.375 33.125C12.5958 33.125 13.109 31.8237 16.184 31.8237C19.259 31.8237 19.9423 33.125 22.1632 33.125C24.7257 33.125 26.6048 30.5244 28.1423 28.4119C28.8257 27.2744 29.3382 26.6256 29.8507 25.6506C30.1923 25.0006 29.85 24.3506 29.1667 24.0256C24.725 21.9131 23.8722 15.0881 28.8263 12.6506C29.6805 12.1631 29.85 11.1862 29.1667 10.6987C27.2875 9.07373 24.5528 7.77564 22.6737 7.77564Z" fill="black"/>
</svg>
