<svg width="34" height="33" viewBox="0 0 34 33" fill="none" xmlns="http://www.w3.org/2000/svg">
<path d="M17.0852 16.497C17.0852 18.2098 18.5458 19.5991 20.3464 19.5991H26.3871C25.3501 22.8036 22.7979 25.233 19.1096 25.8814C13.2483 26.9133 7.38699 22.8508 6.82666 17.2055C6.24582 11.3636 11.0616 6.44802 17.0852 6.44802C18.797 6.44802 20.4096 6.84777 21.8292 7.5514C23.1224 8.19327 24.7044 7.9349 25.7345 6.9534C27.3642 5.40315 26.932 2.78852 24.8837 1.78752C22.0172 0.386773 18.6808 -0.266477 15.1599 0.100773C7.33062 0.916523 0.963657 6.96802 0.106073 14.4154C-1.02314 24.2141 7.01287 32.5016 17.0852 32.5016C27.9639 32.5016 32.4124 25.1648 33.3127 18.8549C33.7261 15.9624 31.2934 13.4079 28.2252 13.4046L20.3498 13.3949C18.5475 13.3916 17.0852 14.781 17.0852 16.497Z" fill="black"/>
</svg>
