<svg width="34" height="30" viewBox="0 0 34 30" fill="none" xmlns="http://www.w3.org/2000/svg">
<path d="M8.54167 0C3.82496 0 0 3.63838 0 8.125V21.125C0 25.6116 3.82496 29.25 8.54167 29.25H22.2083C26.925 29.25 30.75 25.6116 30.75 21.125V8.125C30.75 3.63838 26.925 0 22.2083 0H8.54167ZM25.625 3.25C26.568 3.25 27.3333 3.978 27.3333 4.875C27.3333 5.772 26.568 6.5 25.625 6.5C24.682 6.5 23.9167 5.772 23.9167 4.875C23.9167 3.978 24.682 3.25 25.625 3.25ZM15.375 6.5C20.0917 6.5 23.9167 10.1384 23.9167 14.625C23.9167 19.1116 20.0917 22.75 15.375 22.75C10.6583 22.75 6.83333 19.1116 6.83333 14.625C6.83333 10.1384 10.6583 6.5 15.375 6.5ZM15.375 9.75C14.0158 9.75 12.7122 10.2636 11.7511 11.1779C10.79 12.0921 10.25 13.3321 10.25 14.625C10.25 15.9179 10.79 17.1579 11.7511 18.0721C12.7122 18.9864 14.0158 19.5 15.375 19.5C16.7342 19.5 18.0378 18.9864 18.9989 18.0721C19.96 17.1579 20.5 15.9179 20.5 14.625C20.5 13.3321 19.96 12.0921 18.9989 11.1779C18.0378 10.2636 16.7342 9.75 15.375 9.75Z" fill="black"/>
</svg>
